<?xml version="1.0" encoding="utf-8"?>
<!-- Generator: Adobe Illustrator 23.1.0, SVG Export Plug-In . SVG Version: 6.00 Build 0)  -->
<svg version="1.1" id="Layer_12" xmlns="http://www.w3.org/2000/svg" xmlns:xlink="http://www.w3.org/1999/xlink" x="0px" y="0px"
	 viewBox="0 0 352.7 357.3" style="enable-background:new 0 0 352.7 357.3;" xml:space="preserve">
<style type="text/css">
	.st0{fill:#FFFFFF;}
</style>
<path class="st0" d="M275,283.9c-0.1-65,0.3-152.3,0.3-217.3c18.5,0.2,17.5,0.2,39.2,0.4l-0.6,242.1L275,283.9z"/>
<path class="st0" d="M97.3,260.2c-0.1-65,0.4-154.6,0.5-219.7c24.4,0.1,20.4,0.7,39.5,0.9c-0.4,88.8-0.3,188.2,2.8,221L97.3,260.2z"
	/>
<path class="st0" d="M43.1,228.3c-0.1-65-0.3-151.7-0.4-216.7c17.5,0.2,17-0.2,39.6-0.3L82,253.5L43.1,228.3z"/>
<path class="st0" d="M220.4,254.4c-0.1-65,0.3-151.7,0.3-216.8c17.9,0.2,19.4,0.3,39.2,0.3l-0.6,241.7L220.4,254.4z"/>
<path class="st0" d="M139.3,258.9c6.8,45.5,62.8,51.9,74.4,17l37.8,24.2c-33.7,68.2-155.2,50.7-154-43
	C130.4,258.5,139.3,258.9,139.3,258.9z"/>
</svg>
